<svg width="525" height="525" viewBox="0 0 525 525" xmlns="http://www.w3.org/2000/svg"><g fill="#FFF"><path d="M105.536 161.858c0 26.36-21.368 47.72-47.72 47.72-26.36 0-47.722-21.36-47.722-47.72s21.36-47.72 47.72-47.72c26.355 0 47.722 21.36 47.722 47.72"/><path d="M201.124 377.225c-35.25 0-63.926-28.674-63.926-63.923s28.678-63.926 63.926-63.926h120.78c20.816 0 37.753-16.938 37.753-37.756s-16.938-37.756-37.753-37.756H57.81c-7.227 0-13.086-5.86-13.086-13.085 0-7.227 5.86-13.086 13.085-13.086h264.093c35.25 0 63.923 28.678 63.923 63.926 0 35.248-28.674 63.923-63.923 63.923h-120.78c-20.82 0-37.756 16.938-37.756 37.76 0 20.816 16.938 37.753 37.756 37.753H468.18c7.227 0 13.086 5.86 13.086 13.085 0 7.226-5.858 13.085-13.085 13.085H201.124z"/><path d="M420.464 364.142c0-26.36 21.36-47.72 47.72-47.72s47.72 21.36 47.72 47.72-21.36 47.72-47.72 47.72-47.72-21.36-47.72-47.72"/></g></svg>