<?xml version="1.0" encoding="UTF-8"?>
<svg width="525px" height="525px" viewBox="0 0 525 525" version="1.1" xmlns="http://www.w3.org/2000/svg" xmlns:xlink="http://www.w3.org/1999/xlink">
    <!-- Generator: Sketch 46.2 (44496) - http://www.bohemiancoding.com/sketch -->
    <title>relay-white</title>
    <desc>Created with Sketch.</desc>
    <defs></defs>
    <g id="Page-1" stroke="none" stroke-width="1" fill="none" fill-rule="evenodd">
        <g id="relay-white" fill-rule="nonzero" fill="#FFF">
            <g id="logo" transform="translate(10.000000, 114.000000)">
                <path d="M95.536,47.858 C95.536,74.218 74.168,95.578 47.816,95.578 C21.456,95.578 0.094,74.218 0.094,47.858 C0.094,21.498 21.454,0.138 47.814,0.138 C74.169,0.138 95.536,21.498 95.536,47.858" id="Shape"></path>
                <path d="M191.124,263.225 C155.874,263.225 127.198,234.551 127.198,199.302 C127.198,164.053 155.876,135.376 191.124,135.376 L311.904,135.376 C332.72,135.376 349.657,118.438 349.657,97.62 C349.657,76.802 332.719,59.864 311.904,59.864 L47.81,59.864 C40.583,59.864 34.724,54.004 34.724,46.779 C34.724,39.552 40.584,33.693 47.809,33.693 L311.902,33.693 C347.152,33.693 375.825,62.371 375.825,97.619 C375.825,132.867 347.151,161.542 311.902,161.542 L191.122,161.542 C170.302,161.542 153.366,178.48 153.366,199.302 C153.366,220.118 170.304,237.055 191.122,237.055 L458.18,237.055 C465.407,237.055 471.266,242.915 471.266,250.14 C471.266,257.366 465.408,263.225 458.181,263.225 L191.124,263.225 Z" id="Shape"></path>
                <path d="M410.464,250.142 C410.464,223.782 431.824,202.422 458.184,202.422 C484.544,202.422 505.904,223.782 505.904,250.142 C505.904,276.502 484.544,297.862 458.184,297.862 C431.824,297.862 410.464,276.502 410.464,250.142" id="Shape"></path>
            </g>
        </g>
    </g>
</svg>